<svg xmlns="http://www.w3.org/2000/svg" width="985" height="530" viewBox="0 0 985 530" xml:space="preserve" role="img" aria-label="Diego Zamora — GitHub profile card">
  <style>
    .t { font-family: 'Cascadia Code', 'JetBrains Mono', Menlo, Consolas, 'DejaVu Sans Mono', monospace; font-size: 16px; fill: #c9d1d9; white-space: pre; }
    .accent { fill: #58a6ff; font-weight: bold; }
    .label { fill: #ffa657; }
    .muted { fill: #8b949e; }
    .plus { fill: #3fb950; }
    .minus { fill: #f85149; }
    .small { font-size: 11px; }
  </style>
  <rect x="0" y="0" width="985" height="530" rx="12" fill="#0d1117"/>

  <!-- Zar lightning bolt (pixel-art logo) -->
  <g transform="translate(40, 140) scale(9)">
    <path fill="#f4e625" d="M17 1H20V4H19V5H18V7H17V9H16V10H15V11H16V12H20V14H18V16H17V17H16V18H15V19H14V20H13V21H12V22H11V23H10V24H9V25H6V22H7V21H8V19H9V17H10V16H11V14H6V12H7V11H8V10H9V9H10V8H11V7H12V6H13V5H14V4H15V3H16V2H17Z"/>
    <path fill="#f5bb1a" d="M19 4h1v1h-1zM18 5h1v1h-1zM17 7h1v1h-1zM16 9h1v1h-1zM15 10h1v1h-1zM6 14h5v1H6zM18 14h2v1h-2zM18 15h1v1h-1zM17 16h1v1h-1zM16 17h1v1h-1zM15 18h1v1h-1zM14 19h1v1h-1zM13 20h1v1h-1zM12 21h1v1h-1zM11 22h1v1h-1zM10 23h1v1h-1zM9 24h1v1H9zM6 25h3v1H6z"/>
  </g>
  <text x="157" y="412" text-anchor="middle" class="t muted">@thedackss</text>

  <text x="300" y="42" class="t"><tspan class="accent">diego@zar.mx</tspan><tspan class="muted"> ────────────────────────────────────────────────────-</tspan></text>
  <text x="300" y="63" class="t"><tspan class="muted">. </tspan><tspan class="label">OS</tspan><tspan class="muted">: ........................................ </tspan><tspan>Debian 13, Hyprland</tspan></text>
  <text x="300" y="84" class="t"><tspan class="muted">. </tspan><tspan class="label">Host</tspan><tspan class="muted">: ........................ </tspan><tspan>Geoil Company, Frontend Developer</tspan></text>
  <text x="300" y="105" class="t"><tspan class="muted">. </tspan><tspan class="label">Uptime</tspan><tspan class="muted">: ............................. </tspan><tspan>7 years, 33 days on GitHub</tspan></text>
  <text x="300" y="126" class="t"><tspan class="muted">. </tspan><tspan class="label">IDE</tspan><tspan class="muted">: .......................................... </tspan><tspan>VSCode, DataGrip</tspan></text>
  <text x="300" y="147" class="t"><tspan class="muted">.</tspan></text>
  <text x="300" y="168" class="t"><tspan class="muted">. </tspan><tspan class="label">Languages.Programming</tspan><tspan class="muted">: ............. </tspan><tspan>TypeScript, JavaScript, SQL</tspan></text>
  <text x="300" y="189" class="t"><tspan class="muted">. </tspan><tspan class="label">Frameworks</tspan><tspan class="muted">: ................ </tspan><tspan>React, Astro, NestJS, Angular, Vite</tspan></text>
  <text x="300" y="210" class="t"><tspan class="muted">. </tspan><tspan class="label">Languages.Real</tspan><tspan class="muted">: ............................... </tspan><tspan>Spanish, English</tspan></text>
  <text x="300" y="231" class="t"><tspan class="muted">. </tspan><tspan class="label">Infra</tspan><tspan class="muted">: .................. </tspan><tspan>Docker Swarm, Traefik, Cloudflare, AWS</tspan></text>
  <text x="300" y="252" class="t"><tspan class="muted">.</tspan></text>
  <text x="300" y="273" class="t"><tspan>- Contact</tspan><tspan class="muted"> ───────────────────────────────────────────────────────-</tspan></text>
  <text x="300" y="294" class="t"><tspan class="muted">. </tspan><tspan class="label">Email</tspan><tspan class="muted">: ............................................ </tspan><tspan>diego@zar.mx</tspan></text>
  <text x="300" y="315" class="t"><tspan class="muted">. </tspan><tspan class="label">Web</tspan><tspan class="muted">: .................................................... </tspan><tspan>zar.mx</tspan></text>
  <text x="300" y="336" class="t"><tspan class="muted">. </tspan><tspan class="label">LinkedIn</tspan><tspan class="muted">: ........................................ </tspan><tspan>in/diegozar02</tspan></text>
  <text x="300" y="357" class="t"><tspan class="muted">.</tspan></text>
  <text x="300" y="378" class="t"><tspan>- GitHub Stats</tspan><tspan class="muted"> ──────────────────────────────────────────────────-</tspan></text>
  <text x="300" y="399" class="t"><tspan class="muted">. </tspan><tspan class="label">Repos</tspan><tspan class="muted">: ................................................ </tspan><tspan>8 public</tspan></text>
  <text x="300" y="420" class="t"><tspan class="muted">. </tspan><tspan class="label">Followers</tspan><tspan class="muted">: ................................................... </tspan><tspan>3</tspan></text>
  <text x="300" y="441" class="t"><tspan class="muted">. </tspan><tspan class="label">Commits</tspan><tspan class="muted">: ................................................. </tspan><tspan>1,349</tspan></text>
  <text x="300" y="462" class="t"><tspan class="muted">. </tspan><tspan class="label">Lines of Code</tspan><tspan class="muted">: ................... </tspan><tspan>34,344 ( </tspan><tspan class="plus">65,287++</tspan><tspan>, </tspan><tspan class="minus">30,943--</tspan><tspan> )</tspan></text>
  <text x="300" y="483" class="t"><tspan class="muted">.</tspan></text>
  <text x="300" y="504" class="t"><tspan class="muted">. </tspan><tspan class="label">Updated</tspan><tspan class="muted">: ............................................ </tspan><tspan>2026-08-28</tspan></text>
</svg>
